<svg width="246" height="261" viewBox="0 0 246 261" fill="none" xmlns="http://www.w3.org/2000/svg">
  <g filter="url(#filter0_d_15_58602)">
    <path
      d="M55.6516 44.9326L35.7524 32.9703L65.0656 32.5767V6.57874L22.1984 23.2345L13.454 38.2995L42.3914 50.957C42.3914 50.957 7.42415 50.957 5.61988 50.957C3.80674 50.9565 2 81.0974 2 81.0974H36.9583L55.6516 44.9326Z"
      fill="#E6E6E6" />
    <path d="M28.4034 88.6273H2.78723L40.466 119.846L61.5633 111.405L28.4034 88.6273Z" fill="#E6E6E6" />
    <path
      d="M199.105 114.244L212.975 120.879L193.084 118.466L200.318 99.782L243.713 96.7718L225.627 66.0301L191.866 90.7385L159.926 81.0976L127.981 99.782L91.8163 98.5755L90.0037 114.852L114.115 124.195L111.707 133.543L93.0233 127.51L62.8819 114.852L50.8252 121.483V141.977L69.5121 154.635H127.378L138.226 130.527L125.873 115.083L160.53 116.663L145.086 131.353L162.943 132.032L185.85 123.293L202.041 137.231L237.841 137.018L240.898 103.316L202.127 104.602L199.105 114.244Z"
      fill="#E6E6E6" />
    <path
      d="M109.837 165.482L142.472 199.541L160.558 191.107L132.745 160.058C132.745 160.058 114.055 165.482 109.837 165.482Z"
      fill="#E6E6E6" />
    <path d="M137.324 154.41L155.405 170.681L196.163 161.563V138.133H143.725L137.324 154.41Z" fill="#E6E6E6" />
    <path
      d="M151.038 43.8442L149.682 70.8479L159.944 74.672L175.612 51.1612L177.41 6.3549L147.269 1.48822L124.663 35.588L151.038 43.8442Z"
      fill="#E6E6E6" />
    <path
      d="M177.41 61.8042V78.0782H194.29L224.419 52.7607L194.29 20.8214L185.85 28.8106L187.051 49.4513L177.41 61.8042Z"
      fill="#E6E6E6" />
    <path
      d="M65.9701 49.4516L60.4687 60.0003L68.4519 66.0301L65.8924 75.0653L50.8249 69.9487L40.2758 88.6272L65.0648 106.413L83.3733 99.2191L90.2165 78.0785L97.2397 81.0976V87.7282L134.611 85.3153L140.638 68.4406V49.7675L111.707 40.7067L121.351 27.0037L133.106 8.46048L114.789 0.324741L75.9185 0L75.4585 37.2424L106.582 55.7801L97.2397 60.0003L65.9701 49.4516Z"
      fill="#E6E6E6" />
  </g>
  <g filter="url(#filter1_d_15_58602)">
    <path
      d="M97.8391 246H89.9942C90.0654 243.083 90.101 240.112 90.101 237.088C90.101 234.064 89.9527 230.63 89.6562 226.788C90.0594 225.946 90.6228 224.665 91.3462 222.946C91.4292 222.756 91.6427 222.519 91.9866 222.234C92.3305 221.938 92.6329 221.789 92.8938 221.789H98.3372C98.2542 223.355 98.2127 225.092 98.2127 227.002C98.2127 232.979 98.61 238.92 99.4045 244.826C99.4045 244.98 99.2148 245.217 98.8353 245.537C98.4558 245.846 98.1237 246 97.8391 246ZM85.636 245.075C85.5529 245.253 85.3691 245.454 85.0845 245.68C84.7999 245.893 84.5746 246 84.4085 246H81.5801C81.082 243.047 80.4357 239.94 79.6411 236.679C78.8465 233.417 78.0579 230.731 77.2752 228.62C77.3226 228.348 77.4768 227.517 77.7377 226.13C78.0105 224.73 78.2002 223.669 78.3069 222.946C78.3425 222.78 78.5441 222.548 78.9118 222.252C79.2794 221.944 79.5937 221.789 79.8546 221.789H85.0311C85.8494 226.533 86.5254 229.741 87.0591 231.413C87.6046 233.073 88.1027 234.402 88.5533 235.398C87.4148 238.801 86.4424 242.027 85.636 245.075ZM76.8838 233.139C76.9431 236.103 77.0499 238.369 77.204 239.934C77.3701 241.499 77.7199 243.13 78.2536 244.826C78.2536 244.98 78.0579 245.217 77.6666 245.537C77.2871 245.846 76.955 246 76.6704 246H70.9957C72.1698 243.201 73.0889 240.936 73.753 239.205C74.4171 237.461 74.9449 235.825 75.3362 234.295C75.3362 234.141 75.526 233.91 75.9055 233.601C76.2849 233.293 76.6111 233.139 76.8838 233.139ZM111.163 246H102.891C104.528 238.92 105.684 231.235 106.36 222.946C106.36 222.791 106.55 222.56 106.929 222.252C107.321 221.944 107.653 221.789 107.925 221.789H116.197C114.549 228.81 113.387 236.489 112.711 244.826C112.711 244.98 112.521 245.217 112.141 245.537C111.762 245.846 111.436 246 111.163 246ZM139.234 244.826C139.234 244.98 139.044 245.217 138.665 245.537C138.285 245.846 137.959 246 137.686 246H133.097C131.757 243.569 129.966 240.8 127.724 237.693C125.495 234.585 123.461 231.982 121.623 229.883C121.777 228.614 122.014 226.302 122.334 222.946C122.37 222.78 122.572 222.548 122.939 222.252C123.319 221.944 123.633 221.789 123.882 221.789H128.525C130.102 224.564 131.786 227.191 133.577 229.67C135.379 232.148 137.479 234.852 139.874 237.782C139.566 240.628 139.352 242.976 139.234 244.826ZM138.931 234.669C138.362 231.739 137.84 229.439 137.366 227.766C136.903 226.082 136.275 224.475 135.48 222.946C135.48 222.791 135.67 222.56 136.05 222.252C136.441 221.944 136.779 221.789 137.064 221.789H142.72C141.926 225.217 141.185 229.112 140.497 233.477C140.497 233.643 140.307 233.886 139.928 234.206C139.548 234.514 139.216 234.669 138.931 234.669ZM122.583 233.352C122.892 235.843 123.313 237.93 123.846 239.614C124.38 241.286 125.121 243.023 126.07 244.826C126.07 244.98 125.88 245.217 125.501 245.537C125.121 245.846 124.789 246 124.505 246H118.848C119.642 242.549 120.366 238.724 121.018 234.526C121.018 234.372 121.208 234.141 121.587 233.832C121.979 233.512 122.311 233.352 122.583 233.352ZM157.361 246.356C158.404 245.609 159.371 244.387 160.26 242.691C161.15 240.995 161.849 239.068 162.359 236.91C162.881 234.752 163.142 232.635 163.142 230.559C163.142 227.274 162.502 224.671 161.221 222.75C161.221 222.572 161.411 222.323 161.79 222.003C162.17 221.683 162.496 221.523 162.768 221.523C164.049 221.523 165.265 221.789 166.415 222.323C167.577 222.845 168.585 223.574 169.439 224.511C170.293 225.448 170.969 226.61 171.467 227.998C171.977 229.373 172.232 230.82 172.232 232.338C172.232 233.856 172.042 235.279 171.663 236.607C171.295 237.936 170.708 239.193 169.902 240.379C169.107 241.565 168.135 242.602 166.984 243.492C165.846 244.369 164.446 245.069 162.786 245.591C161.138 246.101 159.329 246.356 157.361 246.356ZM154.71 246.142C152.67 246.142 149.978 246.071 146.634 245.929C148.235 239.489 149.391 231.893 150.103 223.141C150.103 222.999 150.292 222.78 150.672 222.483C151.063 222.187 151.395 222.027 151.668 222.003C155.202 221.706 157.906 221.558 159.78 221.558C158.108 228.769 156.94 236.566 156.275 244.95C156.275 245.116 156.086 245.36 155.706 245.68C155.327 245.988 154.995 246.142 154.71 246.142ZM188.313 221.113C187.376 221.908 186.908 222.875 186.908 224.013C186.908 225.14 187.216 226.272 187.833 227.411C188.461 228.537 189.191 229.498 190.021 230.292C190.851 231.087 191.491 231.721 191.942 232.196C192.405 232.658 192.92 233.222 193.49 233.886C194.071 234.538 194.527 235.125 194.859 235.647C195.678 236.916 196.087 238.031 196.087 238.991C196.087 239.94 195.885 240.823 195.482 241.642C195.091 242.46 194.527 243.207 193.792 243.883C193.069 244.547 192.138 245.099 190.999 245.537C189.873 245.976 188.627 246.225 187.264 246.285C187.643 245.739 187.833 245.17 187.833 244.577C187.833 243.972 187.708 243.361 187.459 242.745C187.21 242.116 186.831 241.446 186.321 240.735C185.503 239.584 184.583 238.458 183.564 237.355C182.556 236.252 181.85 235.463 181.447 234.989C181.055 234.514 180.611 233.915 180.113 233.192C179.14 231.793 178.654 230.387 178.654 228.976C178.654 227.565 179.087 226.254 179.952 225.045C180.818 223.835 181.986 222.88 183.457 222.181C184.939 221.481 186.558 221.125 188.313 221.113ZM194.237 231.858C194.237 230.708 194.029 229.522 193.614 228.3C192.796 225.916 191.432 223.995 189.523 222.537C189.547 222.323 189.748 222.068 190.128 221.772C190.507 221.475 190.821 221.327 191.07 221.327C191.936 221.327 192.944 221.499 194.095 221.843C195.257 222.187 196.176 222.519 196.852 222.839C196.911 223.195 196.941 223.817 196.941 224.707C196.941 225.584 196.858 226.687 196.692 228.015C196.526 229.332 196.324 230.375 196.087 231.146C196.016 231.324 195.761 231.49 195.322 231.644C194.895 231.787 194.533 231.858 194.237 231.858ZM185.716 244.737C185.574 245.543 185.354 246.083 185.058 246.356C183.813 246.356 182.342 246.196 180.646 245.875C178.95 245.555 177.717 245.146 176.946 244.648C176.934 244.387 176.928 244.014 176.928 243.527C176.928 241.215 177.201 239.021 177.747 236.945C177.794 236.756 177.996 236.519 178.351 236.234C178.707 235.937 179.027 235.789 179.312 235.789C179.585 237.094 180.071 238.404 180.771 239.721C181.482 241.037 182.283 242.152 183.172 243.065C184.073 243.966 184.921 244.524 185.716 244.737Z"
      fill="white" />
  </g>

</svg>